<svg width="20" height="20" viewBox="0 0 20 20" fill="none" xmlns="http://www.w3.org/2000/svg">
<path d="M16.2499 6.9375L16.2501 6.9375C16.3612 6.93716 16.4699 6.96969 16.5624 7.031C16.6548 7.09216 16.7271 7.17924 16.7701 7.28129C16.8106 7.38553 16.8209 7.49909 16.7996 7.6089C16.7784 7.71867 16.7267 7.82021 16.6503 7.90185L10.4018 14.1504C10.4017 14.1505 10.4016 14.1506 10.4014 14.1507C10.2937 14.2548 10.1497 14.3129 9.99994 14.3129C9.85015 14.3129 9.70621 14.2548 9.59844 14.1507L3.34954 7.90184C3.27319 7.8202 3.22144 7.71867 3.20023 7.6089C3.17902 7.49909 3.18925 7.38553 3.22975 7.28129C3.27282 7.17923 3.34506 7.09216 3.43743 7.031C3.53002 6.96969 3.63869 6.93716 3.74974 6.9375H3.74994L16.2499 6.9375Z" fill="#4479DB" stroke="#8D9190" stroke-width="0.125"/>
</svg>
