<svg width="24" height="24" viewBox="0 0 24 24" fill="none" xmlns="http://www.w3.org/2000/svg">
<path d="M10 17.6L2.4 10L8.575 3.8L6.175 1.4L7.6 0L17.6 10L10 17.6ZM10 5.225L5.225 10H14.775L10 5.225ZM19 17C18.45 17 17.979 16.8043 17.587 16.413C17.1957 16.021 17 15.55 17 15C17 14.65 17.104 14.275 17.312 13.875C17.5207 13.475 17.75 13.1 18 12.75C18.15 12.55 18.3083 12.3417 18.475 12.125C18.6417 11.9083 18.8167 11.7 19 11.5C19.1833 11.7 19.3583 11.9083 19.525 12.125C19.6917 12.3417 19.85 12.55 20 12.75C20.25 13.1 20.4793 13.475 20.688 13.875C20.896 14.275 21 14.65 21 15C21 15.55 20.8043 16.021 20.413 16.413C20.021 16.8043 19.55 17 19 17ZM2 24V20H22V24H2Z" fill="#4479DB"/>
</svg>
